<svg width="42" height="42" viewBox="0 0 42 42" fill="none" xmlns="http://www.w3.org/2000/svg">
<path fill-rule="evenodd" clip-rule="evenodd" d="M21 0C9.40202 0 0 9.40202 0 21C0 32.598 9.40202 42 21 42C32.598 42 42 32.598 42 21C42 9.40202 32.598 0 21 0ZM18.0833 12.25C18.0833 10.6392 19.3892 9.33333 21 9.33333C22.6108 9.33333 23.9167 10.6392 23.9167 12.25V18.0833H29.75C31.3608 18.0833 32.6666 19.3892 32.6666 21C32.6666 22.6108 31.3608 23.9167 29.75 23.9167H23.9167V29.75C23.9167 31.3608 22.6108 32.6667 21 32.6667C19.3892 32.6667 18.0833 31.3608 18.0833 29.75V23.9167H12.25C10.6392 23.9167 9.33331 22.6108 9.33331 21C9.33331 19.3892 10.6391 18.0833 12.25 18.0833H18.0833V12.25Z" fill="#BBBBBB"/>
</svg>
