<svg width="72" height="72" viewBox="0 0 72 72" fill="none" xmlns="http://www.w3.org/2000/svg">
<path fill-rule="evenodd" clip-rule="evenodd" d="M36 0C16.1178 0 0 16.1178 0 36C0 55.8823 16.1178 72 36 72C55.8823 72 72 55.8823 72 36C72 16.1178 55.8823 0 36 0ZM31 21C31 18.2386 33.2386 16 36 16C38.7614 16 41 18.2386 41 21V31H51C53.7614 31 56 33.2386 56 36C56 38.7614 53.7614 41 51 41H41V51C41 53.7614 38.7614 56 36 56C33.2386 56 31 53.7614 31 51V41H21C18.2386 41 16 38.7614 16 36C16 33.2386 18.2386 31 21 31H31V21Z" fill="#2395FF"/>
</svg>
