<?xml version="1.0" encoding="UTF-8"?>
<!DOCTYPE svg PUBLIC "-//W3C//DTD SVG 1.1//EN" "http://www.w3.org/Graphics/SVG/1.1/DTD/svg11.dtd">
<!-- Creator: CorelDRAW X7 -->
<svg xmlns="http://www.w3.org/2000/svg" xml:space="preserve" width="7.4084mm" height="5.2918mm" version="1.1" style="shape-rendering:geometricPrecision; text-rendering:geometricPrecision; image-rendering:optimizeQuality; fill-rule:evenodd; clip-rule:evenodd"
viewBox="0 0 741 529"
 xmlns:xlink="http://www.w3.org/1999/xlink">
 <defs>
  <style type="text/css">
   <![CDATA[
    .fil0 {fill:#2395FF}
   ]]>
  </style>
 </defs>
 <g id="Layer_x0020_1">
  <metadata id="CorelCorpID_0Corel-Layer"/>
  <path class="fil0" d="M53 106l635 0c29,0 53,-24 53,-53 0,-29 -24,-53 -53,-53l-635 0c-29,0 -53,24 -53,53 0,29 24,53 53,53zm635 106l-635 0c-29,0 -53,23 -53,53 0,29 24,53 53,53l635 0c29,0 53,-24 53,-53 0,-30 -24,-53 -53,-53zm0 211l-635 0c-29,0 -53,24 -53,53 0,29 24,53 53,53l635 0c29,0 53,-24 53,-53 0,-29 -24,-53 -53,-53z"/>
 </g>
</svg>
